<svg xmlns="http://www.w3.org/2000/svg" xmlns:xlink="http://www.w3.org/1999/xlink" width="800" zoomAndPan="magnify" viewBox="0 0 600 599.999999" height="800" preserveAspectRatio="xMidYMid meet" version="1.0"><defs><clipPath id="286f429f2a"><path d="M 544 291 L 598.464844 291 L 598.464844 334 L 544 334 Z M 544 291 " clip-rule="nonzero"/></clipPath><clipPath id="d67535a8a9"><path d="M 1.535156 286 L 60 286 L 60 350 L 1.535156 350 Z M 1.535156 286 " clip-rule="nonzero"/></clipPath><clipPath id="0ae1f0181d"><path d="M 61 216 L 171 216 L 171 284 L 61 284 Z M 61 216 " clip-rule="nonzero"/></clipPath><clipPath id="c2c67db55a"><path d="M 169.054688 275.171875 C 169.394531 268.574219 170.570312 242.566406 170.570312 242.566406 C 170.636719 241.398438 170.464844 240.773438 169.609375 240.144531 C 128.230469 209.097656 89.441406 211.714844 73.070312 228.007812 C 60.183594 240.835938 57.148438 262.730469 66.253906 282.269531 C 67.214844 284.453125 68.261719 284.109375 67.75 281.835938 C 64.734375 268.335938 66.421875 254.984375 75.59375 245.597656 C 92.925781 227.855469 134.28125 242.632812 168.089844 275.476562 C 168.648438 275.929688 168.988281 275.691406 169.03125 275.171875 Z M 169.054688 275.171875 " clip-rule="nonzero"/></clipPath><linearGradient x1="33.923402" gradientTransform="matrix(4.233538, 0, 0, 4.232143, 1.535575, 211.09093)" y1="23.373422" x2="12.059947" gradientUnits="userSpaceOnUse" y2="1.579588" id="f60ec544fe"><stop stop-opacity="1" stop-color="rgb(0%, 63.90686%, 91.358948%)" offset="0"/><stop stop-opacity="1" stop-color="rgb(0%, 63.748169%, 91.226196%)" offset="0.0078125"/><stop stop-opacity="1" stop-color="rgb(0%, 63.42926%, 90.960693%)" offset="0.015625"/><stop stop-opacity="1" stop-color="rgb(0%, 63.111877%, 90.69519%)" offset="0.0234375"/><stop stop-opacity="1" stop-color="rgb(0%, 62.792969%, 90.429688%)" offset="0.03125"/><stop stop-opacity="1" stop-color="rgb(0%, 62.475586%, 90.164185%)" offset="0.0390625"/><stop stop-opacity="1" stop-color="rgb(0%, 62.156677%, 89.897156%)" offset="0.046875"/><stop stop-opacity="1" stop-color="rgb(0%, 61.839294%, 89.631653%)" offset="0.0546875"/><stop stop-opacity="1" stop-color="rgb(0%, 61.521912%, 89.36615%)" offset="0.0625"/><stop stop-opacity="1" stop-color="rgb(0%, 61.203003%, 89.100647%)" offset="0.0703125"/><stop stop-opacity="1" stop-color="rgb(0%, 60.88562%, 88.835144%)" offset="0.078125"/><stop stop-opacity="1" stop-color="rgb(0%, 60.566711%, 88.569641%)" offset="0.0859375"/><stop stop-opacity="1" stop-color="rgb(0%, 60.249329%, 88.304138%)" offset="0.09375"/><stop stop-opacity="1" stop-color="rgb(0%, 59.93042%, 88.038635%)" offset="0.101562"/><stop stop-opacity="1" stop-color="rgb(0%, 59.613037%, 87.773132%)" offset="0.109375"/><stop stop-opacity="1" stop-color="rgb(0%, 59.295654%, 87.506104%)" offset="0.117187"/><stop stop-opacity="1" stop-color="rgb(0%, 58.976746%, 87.240601%)" offset="0.125"/><stop stop-opacity="1" stop-color="rgb(0%, 58.659363%, 86.975098%)" offset="0.132812"/><stop stop-opacity="1" stop-color="rgb(0%, 58.340454%, 86.709595%)" offset="0.140625"/><stop stop-opacity="1" stop-color="rgb(0%, 58.023071%, 86.444092%)" offset="0.148438"/><stop stop-opacity="1" stop-color="rgb(0%, 57.704163%, 86.178589%)" offset="0.15625"/><stop stop-opacity="1" stop-color="rgb(0%, 57.38678%, 85.913086%)" offset="0.164062"/><stop stop-opacity="1" stop-color="rgb(0%, 57.067871%, 85.647583%)" offset="0.171875"/><stop stop-opacity="1" stop-color="rgb(0%, 56.750488%, 85.38208%)" offset="0.179687"/><stop stop-opacity="1" stop-color="rgb(0%, 56.433105%, 85.116577%)" offset="0.1875"/><stop stop-opacity="1" stop-color="rgb(0%, 56.114197%, 84.849548%)" offset="0.195312"/><stop stop-opacity="1" stop-color="rgb(0%, 55.796814%, 84.584045%)" offset="0.203125"/><stop stop-opacity="1" stop-color="rgb(0%, 55.477905%, 84.318542%)" offset="0.210937"/><stop stop-opacity="1" stop-color="rgb(0%, 55.160522%, 84.05304%)" offset="0.21875"/><stop stop-opacity="1" stop-color="rgb(0%, 54.841614%, 83.787537%)" offset="0.226562"/><stop stop-opacity="1" stop-color="rgb(0%, 54.524231%, 83.522034%)" offset="0.234375"/><stop stop-opacity="1" stop-color="rgb(0%, 54.206848%, 83.256531%)" offset="0.242187"/><stop stop-opacity="1" stop-color="rgb(0%, 53.887939%, 82.991028%)" offset="0.25"/><stop stop-opacity="1" stop-color="rgb(0%, 53.570557%, 82.725525%)" offset="0.257812"/><stop stop-opacity="1" stop-color="rgb(0%, 53.251648%, 82.460022%)" offset="0.265625"/><stop stop-opacity="1" stop-color="rgb(0%, 52.934265%, 82.192993%)" offset="0.273437"/><stop stop-opacity="1" stop-color="rgb(0%, 52.615356%, 81.92749%)" offset="0.28125"/><stop stop-opacity="1" stop-color="rgb(0%, 52.297974%, 81.661987%)" offset="0.289062"/><stop stop-opacity="1" stop-color="rgb(0%, 51.980591%, 81.396484%)" offset="0.296875"/><stop stop-opacity="1" stop-color="rgb(0%, 51.661682%, 81.130981%)" offset="0.304687"/><stop stop-opacity="1" stop-color="rgb(0%, 51.344299%, 80.865479%)" offset="0.3125"/><stop stop-opacity="1" stop-color="rgb(0%, 51.025391%, 80.599976%)" offset="0.320312"/><stop stop-opacity="1" stop-color="rgb(0%, 50.708008%, 80.334473%)" offset="0.328125"/><stop stop-opacity="1" stop-color="rgb(0%, 50.389099%, 80.06897%)" offset="0.335937"/><stop stop-opacity="1" stop-color="rgb(0%, 50.071716%, 79.803467%)" offset="0.34375"/><stop stop-opacity="1" stop-color="rgb(0%, 49.752808%, 79.536438%)" offset="0.351562"/><stop stop-opacity="1" stop-color="rgb(0%, 49.435425%, 79.270935%)" offset="0.359375"/><stop stop-opacity="1" stop-color="rgb(0%, 49.118042%, 79.005432%)" offset="0.367187"/><stop stop-opacity="1" stop-color="rgb(0%, 48.799133%, 78.739929%)" offset="0.375"/><stop stop-opacity="1" stop-color="rgb(0%, 48.48175%, 78.474426%)" offset="0.382812"/><stop stop-opacity="1" stop-color="rgb(0%, 48.162842%, 78.208923%)" offset="0.384997"/><stop stop-opacity="1" stop-color="rgb(0%, 48.00415%, 78.076172%)" offset="0.390625"/><stop stop-opacity="1" stop-color="rgb(0%, 47.845459%, 77.94342%)" offset="0.398438"/><stop stop-opacity="1" stop-color="rgb(0%, 47.52655%, 77.677917%)" offset="0.40625"/><stop stop-opacity="1" stop-color="rgb(0%, 47.209167%, 77.412415%)" offset="0.414062"/><stop stop-opacity="1" stop-color="rgb(0%, 46.891785%, 77.145386%)" offset="0.421875"/><stop stop-opacity="1" stop-color="rgb(0%, 46.572876%, 76.879883%)" offset="0.429688"/><stop stop-opacity="1" stop-color="rgb(0%, 46.255493%, 76.61438%)" offset="0.4375"/><stop stop-opacity="1" stop-color="rgb(0%, 45.936584%, 76.348877%)" offset="0.445312"/><stop stop-opacity="1" stop-color="rgb(0%, 45.619202%, 76.083374%)" offset="0.453125"/><stop stop-opacity="1" stop-color="rgb(0%, 45.300293%, 75.817871%)" offset="0.460938"/><stop stop-opacity="1" stop-color="rgb(0%, 44.98291%, 75.552368%)" offset="0.46875"/><stop stop-opacity="1" stop-color="rgb(0%, 44.665527%, 75.286865%)" offset="0.476562"/><stop stop-opacity="1" stop-color="rgb(0%, 44.346619%, 75.021362%)" offset="0.484375"/><stop stop-opacity="1" stop-color="rgb(0%, 44.029236%, 74.755859%)" offset="0.492188"/><stop stop-opacity="1" stop-color="rgb(0%, 43.710327%, 74.488831%)" offset="0.5"/><stop stop-opacity="1" stop-color="rgb(0%, 43.392944%, 74.223328%)" offset="0.507812"/><stop stop-opacity="1" stop-color="rgb(0%, 43.074036%, 73.957825%)" offset="0.515625"/><stop stop-opacity="1" stop-color="rgb(0%, 42.756653%, 73.692322%)" offset="0.523438"/><stop stop-opacity="1" stop-color="rgb(0%, 42.437744%, 73.426819%)" offset="0.53125"/><stop stop-opacity="1" stop-color="rgb(0%, 42.120361%, 73.161316%)" offset="0.539062"/><stop stop-opacity="1" stop-color="rgb(0%, 41.802979%, 72.895813%)" offset="0.546875"/><stop stop-opacity="1" stop-color="rgb(0%, 41.48407%, 72.63031%)" offset="0.554688"/><stop stop-opacity="1" stop-color="rgb(0%, 41.166687%, 72.364807%)" offset="0.5625"/><stop stop-opacity="1" stop-color="rgb(0%, 40.847778%, 72.099304%)" offset="0.570312"/><stop stop-opacity="1" stop-color="rgb(0%, 40.530396%, 71.832275%)" offset="0.578125"/><stop stop-opacity="1" stop-color="rgb(0%, 40.211487%, 71.566772%)" offset="0.585938"/><stop stop-opacity="1" stop-color="rgb(0%, 39.894104%, 71.30127%)" offset="0.59375"/><stop stop-opacity="1" stop-color="rgb(0%, 39.576721%, 71.035767%)" offset="0.601562"/><stop stop-opacity="1" stop-color="rgb(0%, 39.257812%, 70.770264%)" offset="0.609375"/><stop stop-opacity="1" stop-color="rgb(0%, 38.94043%, 70.504761%)" offset="0.615003"/><stop stop-opacity="1" stop-color="rgb(0%, 38.781738%, 70.372009%)" offset="0.617188"/><stop stop-opacity="1" stop-color="rgb(0%, 38.621521%, 70.239258%)" offset="0.625"/><stop stop-opacity="1" stop-color="rgb(0%, 38.304138%, 69.973755%)" offset="0.632812"/><stop stop-opacity="1" stop-color="rgb(0%, 37.985229%, 69.708252%)" offset="0.640625"/><stop stop-opacity="1" stop-color="rgb(0%, 37.667847%, 69.442749%)" offset="0.648438"/><stop stop-opacity="1" stop-color="rgb(0%, 37.350464%, 69.17572%)" offset="0.65625"/><stop stop-opacity="1" stop-color="rgb(0%, 37.031555%, 68.910217%)" offset="0.664062"/><stop stop-opacity="1" stop-color="rgb(0%, 36.714172%, 68.644714%)" offset="0.671875"/><stop stop-opacity="1" stop-color="rgb(0%, 36.395264%, 68.379211%)" offset="0.679688"/><stop stop-opacity="1" stop-color="rgb(0%, 36.077881%, 68.113708%)" offset="0.6875"/><stop stop-opacity="1" stop-color="rgb(0%, 35.758972%, 67.848206%)" offset="0.695312"/><stop stop-opacity="1" stop-color="rgb(0%, 35.441589%, 67.582703%)" offset="0.703125"/><stop stop-opacity="1" stop-color="rgb(0%, 35.122681%, 67.3172%)" offset="0.710938"/><stop stop-opacity="1" stop-color="rgb(0%, 34.805298%, 67.051697%)" offset="0.71875"/><stop stop-opacity="1" stop-color="rgb(0%, 34.487915%, 66.784668%)" offset="0.726562"/><stop stop-opacity="1" stop-color="rgb(0%, 34.169006%, 66.519165%)" offset="0.734375"/><stop stop-opacity="1" stop-color="rgb(0%, 33.851624%, 66.253662%)" offset="0.742188"/><stop stop-opacity="1" stop-color="rgb(0%, 33.532715%, 65.988159%)" offset="0.75"/><stop stop-opacity="1" stop-color="rgb(0%, 33.215332%, 65.722656%)" offset="0.757812"/><stop stop-opacity="1" stop-color="rgb(0%, 32.896423%, 65.457153%)" offset="0.765625"/><stop stop-opacity="1" stop-color="rgb(0%, 32.579041%, 65.19165%)" offset="0.773438"/><stop stop-opacity="1" stop-color="rgb(0%, 32.261658%, 64.926147%)" offset="0.78125"/><stop stop-opacity="1" stop-color="rgb(0%, 31.942749%, 64.660645%)" offset="0.789062"/><stop stop-opacity="1" stop-color="rgb(0%, 31.625366%, 64.395142%)" offset="0.796875"/><stop stop-opacity="1" stop-color="rgb(0%, 31.306458%, 64.128113%)" offset="0.804688"/><stop stop-opacity="1" stop-color="rgb(0%, 30.989075%, 63.86261%)" offset="0.8125"/><stop stop-opacity="1" stop-color="rgb(0%, 30.709839%, 63.62915%)" offset="0.875"/><stop stop-opacity="1" stop-color="rgb(0%, 30.589294%, 63.529968%)" offset="1"/></linearGradient><clipPath id="6e98dcbbc5"><path d="M 114 213.207031 L 236 213.207031 L 236 386.726562 L 114 386.726562 Z M 114 213.207031 " clip-rule="nonzero"/></clipPath><clipPath id="acec8b0799"><path d="M 202.476562 253.230469 C 194.289062 242.933594 178.324219 226.011719 160.09375 213.53125 C 159.195312 212.878906 158.664062 213.269531 158.683594 214.179688 L 157.039062 248.515625 C 156.996094 249.445312 157.230469 249.8125 157.828125 250.265625 C 164.496094 255.460938 170.953125 261.019531 177.214844 267.683594 C 204.121094 296.265625 227.035156 343.625 205.597656 365.347656 C 188.96875 382.179688 152.164062 377.527344 116.75 352.257812 C 114.808594 350.871094 114.144531 351.890625 115.535156 353.339844 C 152.570312 387.675781 193.757812 395.117188 217.203125 377.59375 C 246.140625 355.976562 238.832031 299.054688 202.476562 253.253906 Z M 202.476562 253.230469 " clip-rule="nonzero"/></clipPath><linearGradient x1="52.460347" gradientTransform="matrix(4.233538, 0, 0, 4.232143, 1.535575, 211.09093)" y1="-1.460278" x2="35.423773" gradientUnits="userSpaceOnUse" y2="44.753174" id="dcd9aa97a8"><stop stop-opacity="1" stop-color="rgb(69.018555%, 81.17981%, 0%)" offset="0"/><stop stop-opacity="1" stop-color="rgb(69.018555%, 81.17981%, 0%)" offset="0.218958"/><stop stop-opacity="1" stop-color="rgb(69.018555%, 81.17981%, 0%)" offset="0.25"/><stop stop-opacity="1" stop-color="rgb(69.018555%, 81.17981%, 0%)" offset="0.265625"/><stop stop-opacity="1" stop-color="rgb(69.006348%, 81.173706%, 0.00305176%)" offset="0.273438"/><stop stop-opacity="1" stop-color="rgb(68.783569%, 81.074524%, 0.0762939%)" offset="0.277344"/><stop stop-opacity="1" stop-color="rgb(68.571472%, 80.979919%, 0.14801%)" offset="0.28125"/><stop stop-opacity="1" stop-color="rgb(68.359375%, 80.885315%, 0.218201%)" offset="0.285156"/><stop stop-opacity="1" stop-color="rgb(68.147278%, 80.792236%, 0.289917%)" offset="0.289062"/><stop stop-opacity="1" stop-color="rgb(67.935181%, 80.697632%, 0.360107%)" offset="0.292969"/><stop stop-opacity="1" stop-color="rgb(67.723083%, 80.603027%, 0.431824%)" offset="0.296875"/><stop stop-opacity="1" stop-color="rgb(67.510986%, 80.508423%, 0.502014%)" offset="0.300781"/><stop stop-opacity="1" stop-color="rgb(67.298889%, 80.413818%, 0.57373%)" offset="0.304688"/><stop stop-opacity="1" stop-color="rgb(67.086792%, 80.319214%, 0.643921%)" offset="0.308594"/><stop stop-opacity="1" stop-color="rgb(66.874695%, 80.224609%, 0.715637%)" offset="0.3125"/><stop stop-opacity="1" stop-color="rgb(66.662598%, 80.130005%, 0.785828%)" offset="0.316406"/><stop stop-opacity="1" stop-color="rgb(66.4505%, 80.036926%, 0.857544%)" offset="0.320312"/><stop stop-opacity="1" stop-color="rgb(66.238403%, 79.942322%, 0.927734%)" offset="0.324219"/><stop stop-opacity="1" stop-color="rgb(66.026306%, 79.847717%, 0.999451%)" offset="0.328125"/><stop stop-opacity="1" stop-color="rgb(65.812683%, 79.753113%, 1.069641%)" offset="0.332031"/><stop stop-opacity="1" stop-color="rgb(65.600586%, 79.658508%, 1.141357%)" offset="0.335938"/><stop stop-opacity="1" stop-color="rgb(65.2771%, 79.548645%, 1.255798%)" offset="0.339844"/><stop stop-opacity="1" stop-color="rgb(64.955139%, 79.438782%, 1.371765%)" offset="0.34375"/><stop stop-opacity="1" stop-color="rgb(64.59198%, 79.321289%, 1.501465%)" offset="0.347656"/><stop stop-opacity="1" stop-color="rgb(64.230347%, 79.205322%, 1.63269%)" offset="0.351562"/><stop stop-opacity="1" stop-color="rgb(63.867188%, 79.089355%, 1.76239%)" offset="0.355469"/><stop stop-opacity="1" stop-color="rgb(63.505554%, 78.973389%, 1.893616%)" offset="0.359375"/><stop stop-opacity="1" stop-color="rgb(63.142395%, 78.857422%, 2.023315%)" offset="0.363281"/><stop stop-opacity="1" stop-color="rgb(62.780762%, 78.741455%, 2.154541%)" offset="0.367188"/><stop stop-opacity="1" stop-color="rgb(62.417603%, 78.625488%, 2.285767%)" offset="0.371094"/><stop stop-opacity="1" stop-color="rgb(62.054443%, 78.509521%, 2.416992%)" offset="0.375"/><stop stop-opacity="1" stop-color="rgb(61.691284%, 78.392029%, 2.546692%)" offset="0.378906"/><stop stop-opacity="1" stop-color="rgb(61.329651%, 78.276062%, 2.677917%)" offset="0.382812"/><stop stop-opacity="1" stop-color="rgb(60.966492%, 78.160095%, 2.807617%)" offset="0.386719"/><stop stop-opacity="1" stop-color="rgb(60.604858%, 78.044128%, 2.938843%)" offset="0.390625"/><stop stop-opacity="1" stop-color="rgb(60.241699%, 77.928162%, 3.068542%)" offset="0.394531"/><stop stop-opacity="1" stop-color="rgb(59.880066%, 77.812195%, 3.199768%)" offset="0.398438"/><stop stop-opacity="1" stop-color="rgb(59.516907%, 77.696228%, 3.329468%)" offset="0.402344"/><stop stop-opacity="1" stop-color="rgb(59.155273%, 77.580261%, 3.460693%)" offset="0.40625"/><stop stop-opacity="1" stop-color="rgb(58.792114%, 77.462769%, 3.590393%)" offset="0.410156"/><stop stop-opacity="1" stop-color="rgb(58.430481%, 77.346802%, 3.721619%)" offset="0.414063"/><stop stop-opacity="1" stop-color="rgb(58.067322%, 77.230835%, 3.851318%)" offset="0.417969"/><stop stop-opacity="1" stop-color="rgb(57.704163%, 77.114868%, 3.982544%)" offset="0.421875"/><stop stop-opacity="1" stop-color="rgb(57.341003%, 76.998901%, 4.11377%)" offset="0.425781"/><stop stop-opacity="1" stop-color="rgb(56.97937%, 76.882935%, 4.244995%)" offset="0.429688"/><stop stop-opacity="1" stop-color="rgb(56.616211%, 76.766968%, 4.374695%)" offset="0.433594"/><stop stop-opacity="1" stop-color="rgb(56.254578%, 76.651001%, 4.50592%)" offset="0.4375"/><stop stop-opacity="1" stop-color="rgb(55.867004%, 76.525879%, 4.649353%)" offset="0.441406"/><stop stop-opacity="1" stop-color="rgb(55.480957%, 76.402283%, 4.792786%)" offset="0.445313"/><stop stop-opacity="1" stop-color="rgb(55.00946%, 76.248169%, 4.980469%)" offset="0.449219"/><stop stop-opacity="1" stop-color="rgb(54.537964%, 76.095581%, 5.169678%)" offset="0.453125"/><stop stop-opacity="1" stop-color="rgb(54.066467%, 75.941467%, 5.357361%)" offset="0.457031"/><stop stop-opacity="1" stop-color="rgb(53.594971%, 75.788879%, 5.54657%)" offset="0.460938"/><stop stop-opacity="1" stop-color="rgb(53.123474%, 75.634766%, 5.734253%)" offset="0.464844"/><stop stop-opacity="1" stop-color="rgb(52.651978%, 75.482178%, 5.923462%)" offset="0.46875"/><stop stop-opacity="1" stop-color="rgb(52.180481%, 75.328064%, 6.111145%)" offset="0.472656"/><stop stop-opacity="1" stop-color="rgb(51.708984%, 75.175476%, 6.300354%)" offset="0.476563"/><stop stop-opacity="1" stop-color="rgb(51.237488%, 75.021362%, 6.488037%)" offset="0.480469"/><stop stop-opacity="1" stop-color="rgb(50.765991%, 74.868774%, 6.677246%)" offset="0.484375"/><stop stop-opacity="1" stop-color="rgb(50.292969%, 74.714661%, 6.864929%)" offset="0.488281"/><stop stop-opacity="1" stop-color="rgb(49.821472%, 74.562073%, 7.054138%)" offset="0.492188"/><stop stop-opacity="1" stop-color="rgb(49.349976%, 74.407959%, 7.241821%)" offset="0.496094"/><stop stop-opacity="1" stop-color="rgb(48.878479%, 74.255371%, 7.43103%)" offset="0.5"/><stop stop-opacity="1" stop-color="rgb(48.406982%, 74.101257%, 7.618713%)" offset="0.503906"/><stop stop-opacity="1" stop-color="rgb(47.935486%, 73.948669%, 7.807922%)" offset="0.507812"/><stop stop-opacity="1" stop-color="rgb(47.463989%, 73.794556%, 7.995605%)" offset="0.511719"/><stop stop-opacity="1" stop-color="rgb(46.992493%, 73.641968%, 8.184814%)" offset="0.515625"/><stop stop-opacity="1" stop-color="rgb(46.520996%, 73.487854%, 8.372498%)" offset="0.519531"/><stop stop-opacity="1" stop-color="rgb(46.0495%, 73.335266%, 8.561707%)" offset="0.523438"/><stop stop-opacity="1" stop-color="rgb(45.578003%, 73.181152%, 8.74939%)" offset="0.527344"/><stop stop-opacity="1" stop-color="rgb(45.106506%, 73.028564%, 8.938599%)" offset="0.53125"/><stop stop-opacity="1" stop-color="rgb(44.63501%, 72.875977%, 9.126282%)" offset="0.535156"/><stop stop-opacity="1" stop-color="rgb(44.163513%, 72.723389%, 9.315491%)" offset="0.539062"/><stop stop-opacity="1" stop-color="rgb(43.692017%, 72.569275%, 9.503174%)" offset="0.542969"/><stop stop-opacity="1" stop-color="rgb(43.22052%, 72.416687%, 9.692383%)" offset="0.546875"/><stop stop-opacity="1" stop-color="rgb(42.747498%, 72.262573%, 9.880066%)" offset="0.550781"/><stop stop-opacity="1" stop-color="rgb(42.276001%, 72.109985%, 10.069275%)" offset="0.554688"/><stop stop-opacity="1" stop-color="rgb(41.804504%, 71.955872%, 10.256958%)" offset="0.558594"/><stop stop-opacity="1" stop-color="rgb(41.333008%, 71.803284%, 10.446167%)" offset="0.5625"/><stop stop-opacity="1" stop-color="rgb(40.861511%, 71.64917%, 10.63385%)" offset="0.566406"/><stop stop-opacity="1" stop-color="rgb(40.390015%, 71.496582%, 10.823059%)" offset="0.570312"/><stop stop-opacity="1" stop-color="rgb(39.880371%, 71.327209%, 11.022949%)" offset="0.574219"/><stop stop-opacity="1" stop-color="rgb(39.372253%, 71.159363%, 11.222839%)" offset="0.578125"/><stop stop-opacity="1" stop-color="rgb(38.835144%, 70.980835%, 11.431885%)" offset="0.582031"/><stop stop-opacity="1" stop-color="rgb(38.299561%, 70.802307%, 11.64093%)" offset="0.585938"/><stop stop-opacity="1" stop-color="rgb(37.762451%, 70.623779%, 11.84845%)" offset="0.589844"/><stop stop-opacity="1" stop-color="rgb(37.226868%, 70.445251%, 12.057495%)" offset="0.59375"/><stop stop-opacity="1" stop-color="rgb(36.691284%, 70.266724%, 12.266541%)" offset="0.597656"/><stop stop-opacity="1" stop-color="rgb(36.155701%, 70.088196%, 12.475586%)" offset="0.601562"/><stop stop-opacity="1" stop-color="rgb(35.618591%, 69.909668%, 12.683105%)" offset="0.605469"/><stop stop-opacity="1" stop-color="rgb(35.083008%, 69.73114%, 12.892151%)" offset="0.609375"/><stop stop-opacity="1" stop-color="rgb(34.545898%, 69.551086%, 13.09967%)" offset="0.613281"/><stop stop-opacity="1" stop-color="rgb(34.010315%, 69.372559%, 13.308716%)" offset="0.617188"/><stop stop-opacity="1" stop-color="rgb(33.474731%, 69.194031%, 13.517761%)" offset="0.621094"/><stop stop-opacity="1" stop-color="rgb(32.939148%, 69.015503%, 13.726807%)" offset="0.625"/><stop stop-opacity="1" stop-color="rgb(32.402039%, 68.836975%, 13.934326%)" offset="0.628906"/><stop stop-opacity="1" stop-color="rgb(31.866455%, 68.658447%, 14.143372%)" offset="0.632812"/><stop stop-opacity="1" stop-color="rgb(31.329346%, 68.479919%, 14.350891%)" offset="0.636719"/><stop stop-opacity="1" stop-color="rgb(30.793762%, 68.301392%, 14.559937%)" offset="0.640625"/><stop stop-opacity="1" stop-color="rgb(30.256653%, 68.121338%, 14.768982%)" offset="0.644531"/><stop stop-opacity="1" stop-color="rgb(29.721069%, 67.94281%, 14.978027%)" offset="0.648438"/><stop stop-opacity="1" stop-color="rgb(29.185486%, 67.764282%, 15.185547%)" offset="0.652344"/><stop stop-opacity="1" stop-color="rgb(28.649902%, 67.585754%, 15.394592%)" offset="0.65625"/><stop stop-opacity="1" stop-color="rgb(28.112793%, 67.407227%, 15.602112%)" offset="0.660156"/><stop stop-opacity="1" stop-color="rgb(27.577209%, 67.228699%, 15.811157%)" offset="0.664062"/><stop stop-opacity="1" stop-color="rgb(27.0401%, 67.050171%, 16.020203%)" offset="0.667969"/><stop stop-opacity="1" stop-color="rgb(26.504517%, 66.871643%, 16.229248%)" offset="0.671875"/><stop stop-opacity="1" stop-color="rgb(25.968933%, 66.693115%, 16.436768%)" offset="0.675781"/><stop stop-opacity="1" stop-color="rgb(25.43335%, 66.514587%, 16.645813%)" offset="0.679688"/><stop stop-opacity="1" stop-color="rgb(24.89624%, 66.334534%, 16.854858%)" offset="0.683594"/><stop stop-opacity="1" stop-color="rgb(24.360657%, 66.156006%, 17.063904%)" offset="0.6875"/><stop stop-opacity="1" stop-color="rgb(23.823547%, 65.977478%, 17.271423%)" offset="0.691406"/><stop stop-opacity="1" stop-color="rgb(23.287964%, 65.79895%, 17.480469%)" offset="0.695312"/><stop stop-opacity="1" stop-color="rgb(22.75238%, 65.620422%, 17.687988%)" offset="0.699219"/><stop stop-opacity="1" stop-color="rgb(22.216797%, 65.441895%, 17.897034%)" offset="0.703125"/><stop stop-opacity="1" stop-color="rgb(21.679688%, 65.263367%, 18.106079%)" offset="0.707031"/><stop stop-opacity="1" stop-color="rgb(21.144104%, 65.084839%, 18.315125%)" offset="0.710938"/><stop stop-opacity="1" stop-color="rgb(20.606995%, 64.904785%, 18.522644%)" offset="0.714844"/><stop stop-opacity="1" stop-color="rgb(20.071411%, 64.726257%, 18.731689%)" offset="0.71875"/><stop stop-opacity="1" stop-color="rgb(19.535828%, 64.547729%, 18.939209%)" offset="0.722656"/><stop stop-opacity="1" stop-color="rgb(19.000244%, 64.369202%, 19.148254%)" offset="0.726562"/><stop stop-opacity="1" stop-color="rgb(18.408203%, 64.172363%, 19.381714%)" offset="0.730469"/><stop stop-opacity="1" stop-color="rgb(17.816162%, 63.975525%, 19.616699%)" offset="0.734375"/><stop stop-opacity="1" stop-color="rgb(17.211914%, 63.774109%, 19.854736%)" offset="0.738281"/><stop stop-opacity="1" stop-color="rgb(16.609192%, 63.572693%, 20.094299%)" offset="0.742188"/><stop stop-opacity="1" stop-color="rgb(16.004944%, 63.371277%, 20.332336%)" offset="0.746094"/><stop stop-opacity="1" stop-color="rgb(15.402222%, 63.171387%, 20.571899%)" offset="0.75"/><stop stop-opacity="1" stop-color="rgb(14.797974%, 62.969971%, 20.809937%)" offset="0.753906"/><stop stop-opacity="1" stop-color="rgb(14.195251%, 62.768555%, 21.0495%)" offset="0.757812"/><stop stop-opacity="1" stop-color="rgb(13.591003%, 62.567139%, 21.287537%)" offset="0.761719"/><stop stop-opacity="1" stop-color="rgb(12.988281%, 62.367249%, 21.5271%)" offset="0.765625"/><stop stop-opacity="1" stop-color="rgb(12.384033%, 62.165833%, 21.765137%)" offset="0.769531"/><stop stop-opacity="1" stop-color="rgb(11.781311%, 61.964417%, 22.0047%)" offset="0.773438"/><stop stop-opacity="1" stop-color="rgb(11.178589%, 61.763%, 22.242737%)" offset="0.777344"/><stop stop-opacity="1" stop-color="rgb(10.575867%, 61.56311%, 22.4823%)" offset="0.78125"/><stop stop-opacity="1" stop-color="rgb(9.971619%, 61.361694%, 22.720337%)" offset="0.785156"/><stop stop-opacity="1" stop-color="rgb(9.368896%, 61.160278%, 22.9599%)" offset="0.789062"/><stop stop-opacity="1" stop-color="rgb(8.764648%, 60.958862%, 23.197937%)" offset="0.792969"/><stop stop-opacity="1" stop-color="rgb(8.161926%, 60.758972%, 23.4375%)" offset="0.796875"/><stop stop-opacity="1" stop-color="rgb(7.557678%, 60.557556%, 23.675537%)" offset="0.800781"/><stop stop-opacity="1" stop-color="rgb(6.954956%, 60.35614%, 23.9151%)" offset="0.804688"/><stop stop-opacity="1" stop-color="rgb(6.350708%, 60.154724%, 24.154663%)" offset="0.808594"/><stop stop-opacity="1" stop-color="rgb(5.747986%, 59.954834%, 24.394226%)" offset="0.8125"/><stop stop-opacity="1" stop-color="rgb(5.143738%, 59.753418%, 24.632263%)" offset="0.816406"/><stop stop-opacity="1" stop-color="rgb(4.541016%, 59.552002%, 24.871826%)" offset="0.820312"/><stop stop-opacity="1" stop-color="rgb(3.936768%, 59.350586%, 25.109863%)" offset="0.824219"/><stop stop-opacity="1" stop-color="rgb(3.334045%, 59.150696%, 25.349426%)" offset="0.828125"/><stop stop-opacity="1" stop-color="rgb(2.729797%, 58.94928%, 25.587463%)" offset="0.832031"/><stop stop-opacity="1" stop-color="rgb(2.127075%, 58.747864%, 25.827026%)" offset="0.835938"/><stop stop-opacity="1" stop-color="rgb(1.524353%, 58.546448%, 26.065063%)" offset="0.839844"/><stop stop-opacity="1" stop-color="rgb(0.921631%, 58.346558%, 26.304626%)" offset="0.84375"/><stop stop-opacity="1" stop-color="rgb(0.460815%, 58.192444%, 26.486206%)" offset="0.847656"/><stop stop-opacity="1" stop-color="rgb(0%, 58.039856%, 26.669312%)" offset="0.851562"/><stop stop-opacity="1" stop-color="rgb(0%, 58.039856%, 26.669312%)" offset="0.859375"/><stop stop-opacity="1" stop-color="rgb(0%, 58.039856%, 26.669312%)" offset="0.875"/><stop stop-opacity="1" stop-color="rgb(0%, 58.039856%, 26.669312%)" offset="1"/></linearGradient></defs><g clip-path="url(#286f429f2a)"><path fill="#004b9d" d="M 589.273438 303.511719 L 589.273438 296.285156 C 589.273438 293 587.4375 291.417969 584.445312 291.417969 L 580.066406 291.417969 L 580.066406 315.78125 C 578.929688 316.191406 577.585938 316.539062 576.023438 316.777344 C 574.441406 317.035156 572.734375 317.164062 570.875 317.164062 L 554.179688 317.164062 L 554.179688 298.539062 L 572.992188 298.539062 L 572.992188 293.300781 L 544.96875 293.300781 L 544.96875 316.429688 C 544.96875 318.269531 545.550781 319.738281 546.679688 320.84375 C 547.8125 321.945312 549.351562 322.507812 551.320312 322.507812 L 570.339844 322.507812 C 572.261719 322.507812 574.035156 322.269531 575.726562 321.839844 C 577.414062 321.40625 578.867188 320.863281 580.085938 320.214844 L 580.085938 333.671875 L 589.300781 333.671875 L 589.300781 308.835938 L 598.484375 308.835938 L 598.484375 303.511719 Z M 589.273438 303.511719 " fill-opacity="1" fill-rule="nonzero"/></g><path fill="#004b9d" d="M 473.265625 314.742188 C 473.671875 312.878906 473.882812 311.171875 473.882812 309.59375 L 473.882812 296.652344 C 473.882812 293.363281 472.046875 291.808594 469.054688 291.808594 L 432.980469 291.808594 L 432.980469 297.042969 L 464.671875 297.042969 L 464.671875 309.875 C 464.671875 311.429688 464.609375 313.011719 464.460938 314.609375 C 464.328125 316.191406 464.054688 317.574219 463.625 318.785156 L 428.507812 318.785156 L 428.507812 324.109375 L 449.710938 324.109375 L 449.710938 349.292969 L 458.921875 349.292969 L 458.921875 324.109375 L 480.0625 324.109375 L 480.0625 318.785156 L 471.808594 318.785156 C 472.367188 317.964844 472.839844 316.601562 473.246094 314.742188 Z M 473.265625 314.742188 " fill-opacity="1" fill-rule="nonzero"/><path fill="#004b9d" d="M 361.640625 309.460938 C 362.066406 307.625 362.300781 305.933594 362.300781 304.355469 L 362.300781 296.652344 C 362.300781 293.363281 360.464844 291.808594 357.472656 291.808594 L 323.019531 291.808594 L 323.019531 297.042969 L 353.089844 297.042969 L 353.089844 304.574219 C 353.089844 306.171875 353.027344 307.753906 352.898438 309.332031 C 352.75 310.890625 352.46875 312.273438 352 313.464844 L 316.734375 313.464844 L 316.734375 318.722656 L 338.023438 318.722656 L 338.023438 327.894531 L 322.804688 327.894531 L 322.804688 333.132812 L 352.941406 333.132812 L 352.941406 349.292969 L 362.152344 349.292969 L 362.152344 332.765625 C 362.152344 329.476562 360.3125 327.894531 357.320312 327.894531 L 347.210938 327.894531 L 347.210938 318.722656 L 368.90625 318.722656 L 368.90625 313.464844 L 360.035156 313.464844 C 360.65625 312.640625 361.210938 311.324219 361.617188 309.460938 Z M 361.640625 309.460938 " fill-opacity="1" fill-rule="nonzero"/><path fill="#004b9d" d="M 395.878906 320.496094 C 397.929688 319.589844 399.660156 318.332031 401.136719 316.777344 L 412.527344 316.777344 L 412.527344 333.671875 L 421.738281 333.671875 L 421.738281 296.285156 C 421.738281 293 419.898438 291.417969 416.90625 291.417969 L 412.546875 291.417969 L 412.546875 297.21875 L 401.371094 297.21875 C 399.917969 295.617188 398.144531 294.316406 396.046875 293.367188 C 393.953125 292.390625 391.710938 291.917969 389.292969 291.917969 C 385.019531 291.917969 381.324219 293.386719 378.246094 296.285156 C 375.144531 299.230469 373.605469 302.734375 373.605469 306.886719 C 373.605469 311.042969 375.144531 314.546875 378.246094 317.488281 C 381.324219 320.410156 385.019531 321.859375 389.292969 321.859375 C 391.667969 321.859375 393.847656 321.40625 395.898438 320.476562 Z M 404.875 304.636719 C 404.726562 303.902344 404.554688 303.167969 404.339844 302.429688 L 412.503906 302.429688 L 412.503906 311.605469 L 404.253906 311.605469 C 404.535156 310.824219 404.726562 310.046875 404.875 309.269531 C 405.003906 308.488281 405.089844 307.710938 405.089844 306.929688 C 405.089844 306.152344 405.003906 305.394531 404.875 304.660156 Z M 384.679688 313.726562 C 383.417969 311.84375 382.777344 309.570312 382.777344 306.910156 C 382.777344 304.25 383.417969 301.957031 384.679688 300.074219 C 385.960938 298.191406 387.476562 297.238281 389.25 297.238281 C 391.027344 297.238281 392.628906 298.191406 393.933594 300.074219 C 395.214844 301.957031 395.878906 304.226562 395.878906 306.910156 C 395.878906 309.59375 395.234375 311.863281 393.933594 313.726562 C 392.628906 315.609375 391.089844 316.558594 389.25 316.558594 C 387.414062 316.558594 385.960938 315.609375 384.679688 313.726562 Z M 384.679688 313.726562 " fill-opacity="1" fill-rule="nonzero"/><path fill="#004b9d" d="M 393.269531 343.28125 L 393.269531 333.222656 C 393.269531 329.933594 391.433594 328.375 388.4375 328.375 L 384.078125 328.375 L 384.078125 342.394531 C 384.078125 344.320312 384.679688 345.835938 385.894531 346.960938 C 387.09375 348.0625 388.609375 348.605469 390.425781 348.605469 L 423.769531 348.605469 L 423.769531 343.304688 L 393.292969 343.304688 Z M 393.269531 343.28125 " fill-opacity="1" fill-rule="nonzero"/><path fill="#004b9d" d="M 561.144531 343.28125 L 561.144531 333.847656 C 561.144531 330.558594 559.308594 328.980469 556.316406 328.980469 L 551.960938 328.980469 L 551.960938 342.371094 C 551.960938 344.296875 552.554688 345.8125 553.753906 346.9375 C 554.949219 348.039062 556.46875 348.582031 558.285156 348.582031 L 590.789062 348.582031 L 590.789062 343.28125 Z M 561.144531 343.28125 " fill-opacity="1" fill-rule="nonzero"/><path fill="#004b9d" d="M 286.492188 321.925781 C 289.292969 319.375 290.683594 316.300781 290.683594 312.710938 C 290.683594 310.742188 290.210938 308.878906 289.269531 307.148438 C 288.332031 305.417969 287.070312 303.992188 285.488281 302.820312 L 292.648438 302.820312 L 292.648438 297.585938 L 280.980469 297.585938 L 280.980469 295.617188 C 280.980469 292.328125 279.140625 290.75 276.148438 290.75 L 271.789062 290.75 L 271.789062 297.585938 L 260.140625 297.585938 L 260.140625 302.820312 L 267.363281 302.820312 C 265.804688 303.992188 264.566406 305.417969 263.625 307.148438 C 262.664062 308.878906 262.171875 310.71875 262.171875 312.710938 C 262.171875 316.300781 263.582031 319.375 266.402344 321.925781 C 269.222656 324.480469 272.558594 325.753906 276.40625 325.753906 C 280.253906 325.753906 283.671875 324.480469 286.472656 321.925781 Z M 270.914062 312.710938 C 270.914062 310.503906 271.488281 308.597656 272.621094 307.019531 C 273.753906 305.441406 275.039062 304.640625 276.449219 304.640625 C 277.859375 304.640625 279.207031 305.441406 280.296875 307.019531 C 281.429688 308.597656 281.984375 310.503906 281.984375 312.710938 C 281.984375 314.917969 281.429688 316.820312 280.296875 318.441406 C 279.183594 320.042969 277.902344 320.867188 276.449219 320.867188 C 274.996094 320.867188 273.753906 320.042969 272.621094 318.441406 C 271.488281 316.820312 270.914062 314.917969 270.914062 312.710938 Z M 270.914062 312.710938 " fill-opacity="1" fill-rule="nonzero"/><path fill="#004b9d" d="M 531.183594 291.445312 L 527.363281 291.445312 L 527.363281 306.976562 L 522.660156 306.976562 L 522.660156 296.3125 C 522.660156 293.023438 520.800781 291.445312 517.808594 291.445312 L 513.980469 291.445312 L 513.980469 325.066406 C 510.925781 323.875 508.425781 321.410156 506.414062 317.6875 C 504.40625 313.964844 503.40625 309.597656 503.40625 304.578125 L 503.40625 298.5625 L 510.839844 298.5625 L 510.839844 293.324219 L 486.285156 293.324219 L 486.285156 298.5625 L 494.320312 298.5625 L 494.320312 304.578125 C 494.320312 309.964844 493.207031 314.550781 491.003906 318.378906 C 488.828125 322.210938 485.984375 324.566406 482.519531 325.5 L 486.753906 329.089844 C 489.382812 328.742188 491.949219 327.359375 494.445312 325.023438 C 496.949219 322.6875 498.421875 320.304688 498.871094 317.925781 C 499.363281 320.328125 500.859375 322.6875 503.335938 325.023438 C 505.796875 327.378906 508.339844 328.742188 510.925781 329.089844 L 513.917969 326.535156 L 513.917969 349.320312 L 522.574219 349.320312 L 522.574219 312.257812 L 527.273438 312.257812 L 527.273438 349.320312 L 535.929688 349.320312 L 535.929688 296.332031 C 535.929688 293.042969 534.09375 291.464844 531.101562 291.464844 Z M 531.183594 291.445312 " fill-opacity="1" fill-rule="nonzero"/><path fill="#004b9d" d="M 306.710938 304.574219 L 306.710938 296.3125 C 306.710938 293.023438 304.871094 291.441406 301.878906 291.441406 L 301.878906 291.378906 L 297.5 291.378906 L 297.5 333.609375 L 306.6875 333.609375 L 306.6875 309.855469 L 315.898438 309.855469 L 315.898438 304.554688 L 306.6875 304.554688 Z M 306.710938 304.574219 " fill-opacity="1" fill-rule="nonzero"/><path fill="#004b9d" d="M 279.65625 343.277344 L 279.65625 334.882812 C 279.65625 331.59375 277.816406 330.039062 274.824219 330.039062 L 270.464844 330.039062 L 270.464844 342.328125 C 270.464844 344.25 271.0625 345.765625 272.257812 346.871094 C 273.476562 347.972656 274.996094 348.535156 276.789062 348.535156 L 308.699219 348.535156 L 308.699219 343.300781 L 279.65625 343.300781 Z M 279.65625 343.277344 " fill-opacity="1" fill-rule="nonzero"/><path fill="#004b9d" d="M 139.859375 286.980469 C 135.945312 286.980469 132.144531 289.078125 132.144531 295.09375 L 132.144531 349.269531 L 143.769531 349.269531 C 147.464844 349.269531 148.917969 347.601562 148.917969 344.269531 L 148.917969 326.941406 L 175.570312 326.941406 C 179.269531 326.941406 180.722656 325.277344 180.722656 321.921875 L 180.722656 313.117188 L 148.917969 313.117188 L 148.917969 300.652344 L 178.113281 300.652344 C 181.789062 300.652344 183.265625 298.988281 183.265625 295.65625 L 183.265625 287.003906 L 139.859375 287.003906 Z M 139.859375 286.980469 " fill-opacity="1" fill-rule="nonzero"/><g clip-path="url(#d67535a8a9)"><path fill="#004b9d" d="M 59.046875 341.15625 L 59.046875 286.980469 L 47.527344 286.980469 C 43.832031 286.980469 42.378906 288.625 42.378906 291.976562 L 42.378906 321.597656 L 16.710938 286.980469 L 9.230469 286.980469 C 5.320312 286.980469 1.535156 289.078125 1.535156 295.09375 L 1.535156 349.269531 L 13.054688 349.269531 C 16.753906 349.269531 18.207031 347.625 18.207031 344.269531 L 18.207031 314.628906 L 44.453125 349.269531 L 51.355469 349.269531 C 55.265625 349.269531 59.046875 347.171875 59.046875 341.15625 Z M 59.046875 341.15625 " fill-opacity="1" fill-rule="nonzero"/></g><g clip-path="url(#0ae1f0181d)"><g clip-path="url(#c2c67db55a)"><path fill="url(#f60ec544fe)" d="M 57.148438 213.207031 L 57.148438 284.453125 L 170.636719 284.453125 L 170.636719 213.207031 Z M 57.148438 213.207031 " fill-rule="nonzero"/></g></g><g clip-path="url(#6e98dcbbc5)"><g clip-path="url(#acec8b0799)"><path fill="url(#dcd9aa97a8)" d="M 114.144531 213.207031 L 114.144531 386.726562 L 246.140625 386.726562 L 246.140625 213.207031 Z M 114.144531 213.207031 " fill-rule="nonzero"/></g></g><path fill="#004b9d" d="M 117.886719 349.269531 L 132.71875 349.269531 C 121.753906 337.847656 115.75 331.203125 111.496094 325.730469 C 120.449219 321.359375 124.40625 314.070312 124.40625 307.144531 C 124.40625 295.699219 117.332031 287.628906 104.144531 287.023438 C 103.503906 286.980469 79.628906 287.023438 68.496094 287.023438 L 68.496094 349.292969 L 79.992188 349.292969 C 83.691406 349.292969 85.144531 347.648438 85.144531 344.292969 L 85.144531 318.15625 C 92.730469 328.628906 99.761719 337.671875 107.628906 345.398438 C 110.105469 347.90625 114.765625 349.3125 117.90625 349.3125 Z M 98.375 314.738281 L 85.121094 314.738281 L 85.121094 299.679688 C 88.007812 299.679688 96.898438 299.679688 98.738281 299.679688 C 103.351562 299.679688 106.902344 302.710938 106.902344 307.1875 C 106.902344 312.25 102.882812 314.738281 98.375 314.738281 Z M 98.375 314.738281 " fill-opacity="1" fill-rule="nonzero"/></svg>